<mxfile host="app.diagrams.net" modified="2023-08-08T13:50:13.704Z" agent="Mozilla/5.0 (Windows NT 10.0; Win64; x64; rv:109.0) Gecko/20100101 Firefox/116.0" etag="iztfTcQt6MHOgL_4E8CG" version="21.6.6" type="device">
  <diagram name="Page-1" id="VZIIqRRXdtm2IghGHygO">
    <mxGraphModel dx="794" dy="432" grid="1" gridSize="10" guides="1" tooltips="1" connect="1" arrows="1" fold="1" page="1" pageScale="1" pageWidth="1100" pageHeight="850" math="0" shadow="0">
      <root>
        <mxCell id="0" />
        <mxCell id="1" parent="0" />
        <mxCell id="JHnNRW4oArT9A1gmSYhV-1" value="" style="shape=table;startSize=0;container=1;collapsible=0;childLayout=tableLayout;" vertex="1" parent="1">
          <mxGeometry x="110" y="40" width="90" height="360" as="geometry" />
        </mxCell>
        <mxCell id="JHnNRW4oArT9A1gmSYhV-2" value="" style="shape=tableRow;horizontal=0;startSize=0;swimlaneHead=0;swimlaneBody=0;strokeColor=inherit;top=0;left=0;bottom=0;right=0;collapsible=0;dropTarget=0;fillColor=none;points=[[0,0.5],[1,0.5]];portConstraint=eastwest;" vertex="1" parent="JHnNRW4oArT9A1gmSYhV-1">
          <mxGeometry width="90" height="40" as="geometry" />
        </mxCell>
        <mxCell id="JHnNRW4oArT9A1gmSYhV-3" value="Transfer" style="shape=partialRectangle;html=1;whiteSpace=wrap;connectable=0;strokeColor=inherit;overflow=hidden;fillColor=none;top=0;left=0;bottom=0;right=0;pointerEvents=1;" vertex="1" parent="JHnNRW4oArT9A1gmSYhV-2">
          <mxGeometry width="90" height="40" as="geometry">
            <mxRectangle width="90" height="40" as="alternateBounds" />
          </mxGeometry>
        </mxCell>
        <mxCell id="JHnNRW4oArT9A1gmSYhV-4" value="" style="shape=tableRow;horizontal=0;startSize=0;swimlaneHead=0;swimlaneBody=0;strokeColor=inherit;top=0;left=0;bottom=0;right=0;collapsible=0;dropTarget=0;fillColor=none;points=[[0,0.5],[1,0.5]];portConstraint=eastwest;" vertex="1" parent="JHnNRW4oArT9A1gmSYhV-1">
          <mxGeometry y="40" width="90" height="40" as="geometry" />
        </mxCell>
        <mxCell id="JHnNRW4oArT9A1gmSYhV-5" value="Linear" style="shape=partialRectangle;html=1;whiteSpace=wrap;connectable=0;strokeColor=inherit;overflow=hidden;fillColor=none;top=0;left=0;bottom=0;right=0;pointerEvents=1;" vertex="1" parent="JHnNRW4oArT9A1gmSYhV-4">
          <mxGeometry width="90" height="40" as="geometry">
            <mxRectangle width="90" height="40" as="alternateBounds" />
          </mxGeometry>
        </mxCell>
        <mxCell id="JHnNRW4oArT9A1gmSYhV-6" value="" style="shape=tableRow;horizontal=0;startSize=0;swimlaneHead=0;swimlaneBody=0;strokeColor=inherit;top=0;left=0;bottom=0;right=0;collapsible=0;dropTarget=0;fillColor=none;points=[[0,0.5],[1,0.5]];portConstraint=eastwest;" vertex="1" parent="JHnNRW4oArT9A1gmSYhV-1">
          <mxGeometry y="80" width="90" height="40" as="geometry" />
        </mxCell>
        <mxCell id="JHnNRW4oArT9A1gmSYhV-7" value="ReLU" style="shape=partialRectangle;html=1;whiteSpace=wrap;connectable=0;strokeColor=inherit;overflow=hidden;fillColor=none;top=0;left=0;bottom=0;right=0;pointerEvents=1;" vertex="1" parent="JHnNRW4oArT9A1gmSYhV-6">
          <mxGeometry width="90" height="40" as="geometry">
            <mxRectangle width="90" height="40" as="alternateBounds" />
          </mxGeometry>
        </mxCell>
        <mxCell id="JHnNRW4oArT9A1gmSYhV-8" value="" style="shape=tableRow;horizontal=0;startSize=0;swimlaneHead=0;swimlaneBody=0;strokeColor=inherit;top=0;left=0;bottom=0;right=0;collapsible=0;dropTarget=0;fillColor=none;points=[[0,0.5],[1,0.5]];portConstraint=eastwest;" vertex="1" parent="JHnNRW4oArT9A1gmSYhV-1">
          <mxGeometry y="120" width="90" height="40" as="geometry" />
        </mxCell>
        <mxCell id="JHnNRW4oArT9A1gmSYhV-9" value="Linear" style="shape=partialRectangle;html=1;whiteSpace=wrap;connectable=0;strokeColor=inherit;overflow=hidden;fillColor=none;top=0;left=0;bottom=0;right=0;pointerEvents=1;" vertex="1" parent="JHnNRW4oArT9A1gmSYhV-8">
          <mxGeometry width="90" height="40" as="geometry">
            <mxRectangle width="90" height="40" as="alternateBounds" />
          </mxGeometry>
        </mxCell>
        <mxCell id="JHnNRW4oArT9A1gmSYhV-10" value="" style="shape=tableRow;horizontal=0;startSize=0;swimlaneHead=0;swimlaneBody=0;strokeColor=inherit;top=0;left=0;bottom=0;right=0;collapsible=0;dropTarget=0;fillColor=none;points=[[0,0.5],[1,0.5]];portConstraint=eastwest;" vertex="1" parent="JHnNRW4oArT9A1gmSYhV-1">
          <mxGeometry y="160" width="90" height="40" as="geometry" />
        </mxCell>
        <mxCell id="JHnNRW4oArT9A1gmSYhV-11" value="ReLU" style="shape=partialRectangle;html=1;whiteSpace=wrap;connectable=0;strokeColor=inherit;overflow=hidden;fillColor=none;top=0;left=0;bottom=0;right=0;pointerEvents=1;" vertex="1" parent="JHnNRW4oArT9A1gmSYhV-10">
          <mxGeometry width="90" height="40" as="geometry">
            <mxRectangle width="90" height="40" as="alternateBounds" />
          </mxGeometry>
        </mxCell>
        <mxCell id="JHnNRW4oArT9A1gmSYhV-13" style="shape=tableRow;horizontal=0;startSize=0;swimlaneHead=0;swimlaneBody=0;strokeColor=inherit;top=0;left=0;bottom=0;right=0;collapsible=0;dropTarget=0;fillColor=none;points=[[0,0.5],[1,0.5]];portConstraint=eastwest;" vertex="1" parent="JHnNRW4oArT9A1gmSYhV-1">
          <mxGeometry y="200" width="90" height="40" as="geometry" />
        </mxCell>
        <mxCell id="JHnNRW4oArT9A1gmSYhV-14" value="Linear" style="shape=partialRectangle;html=1;whiteSpace=wrap;connectable=0;strokeColor=inherit;overflow=hidden;fillColor=none;top=0;left=0;bottom=0;right=0;pointerEvents=1;" vertex="1" parent="JHnNRW4oArT9A1gmSYhV-13">
          <mxGeometry width="90" height="40" as="geometry">
            <mxRectangle width="90" height="40" as="alternateBounds" />
          </mxGeometry>
        </mxCell>
        <mxCell id="JHnNRW4oArT9A1gmSYhV-15" style="shape=tableRow;horizontal=0;startSize=0;swimlaneHead=0;swimlaneBody=0;strokeColor=inherit;top=0;left=0;bottom=0;right=0;collapsible=0;dropTarget=0;fillColor=none;points=[[0,0.5],[1,0.5]];portConstraint=eastwest;" vertex="1" parent="JHnNRW4oArT9A1gmSYhV-1">
          <mxGeometry y="240" width="90" height="40" as="geometry" />
        </mxCell>
        <mxCell id="JHnNRW4oArT9A1gmSYhV-16" value="ReLU" style="shape=partialRectangle;html=1;whiteSpace=wrap;connectable=0;strokeColor=inherit;overflow=hidden;fillColor=none;top=0;left=0;bottom=0;right=0;pointerEvents=1;" vertex="1" parent="JHnNRW4oArT9A1gmSYhV-15">
          <mxGeometry width="90" height="40" as="geometry">
            <mxRectangle width="90" height="40" as="alternateBounds" />
          </mxGeometry>
        </mxCell>
        <mxCell id="JHnNRW4oArT9A1gmSYhV-17" style="shape=tableRow;horizontal=0;startSize=0;swimlaneHead=0;swimlaneBody=0;strokeColor=inherit;top=0;left=0;bottom=0;right=0;collapsible=0;dropTarget=0;fillColor=none;points=[[0,0.5],[1,0.5]];portConstraint=eastwest;" vertex="1" parent="JHnNRW4oArT9A1gmSYhV-1">
          <mxGeometry y="280" width="90" height="40" as="geometry" />
        </mxCell>
        <mxCell id="JHnNRW4oArT9A1gmSYhV-18" value="&#xa;Softmax&#xa;&#xa;" style="shape=partialRectangle;html=1;whiteSpace=wrap;connectable=0;strokeColor=inherit;overflow=hidden;fillColor=none;top=0;left=0;bottom=0;right=0;pointerEvents=1;" vertex="1" parent="JHnNRW4oArT9A1gmSYhV-17">
          <mxGeometry width="90" height="40" as="geometry">
            <mxRectangle width="90" height="40" as="alternateBounds" />
          </mxGeometry>
        </mxCell>
        <mxCell id="JHnNRW4oArT9A1gmSYhV-19" style="shape=tableRow;horizontal=0;startSize=0;swimlaneHead=0;swimlaneBody=0;strokeColor=inherit;top=0;left=0;bottom=0;right=0;collapsible=0;dropTarget=0;fillColor=none;points=[[0,0.5],[1,0.5]];portConstraint=eastwest;" vertex="1" parent="JHnNRW4oArT9A1gmSYhV-1">
          <mxGeometry y="320" width="90" height="40" as="geometry" />
        </mxCell>
        <mxCell id="JHnNRW4oArT9A1gmSYhV-20" value="Transfer" style="shape=partialRectangle;html=1;whiteSpace=wrap;connectable=0;strokeColor=inherit;overflow=hidden;fillColor=none;top=0;left=0;bottom=0;right=0;pointerEvents=1;" vertex="1" parent="JHnNRW4oArT9A1gmSYhV-19">
          <mxGeometry width="90" height="40" as="geometry">
            <mxRectangle width="90" height="40" as="alternateBounds" />
          </mxGeometry>
        </mxCell>
        <mxCell id="JHnNRW4oArT9A1gmSYhV-12" value="&lt;font style=&quot;font-size: 20px;&quot;&gt;Example Computational Graph&lt;br&gt;&lt;/font&gt;" style="text;html=1;strokeColor=none;fillColor=none;align=center;verticalAlign=middle;whiteSpace=wrap;rounded=0;" vertex="1" parent="1">
          <mxGeometry width="340" height="40" as="geometry" />
        </mxCell>
      </root>
    </mxGraphModel>
  </diagram>
</mxfile>
